<?xml version="1.0" standalone="no"?>
<!DOCTYPE svg PUBLIC "-//W3C//DTD SVG 20010904//EN"
 "http://www.w3.org/TR/2001/REC-SVG-20010904/DTD/svg10.dtd">
<svg version="1.0" xmlns="http://www.w3.org/2000/svg"
 width="512.000000pt" height="512.000000pt" viewBox="0 0 512.000000 512.000000"
 preserveAspectRatio="xMidYMid meet">
<metadata>
Created by potrace 1.16, written by Peter Selinger 2001-2019
</metadata>
<g transform="translate(0.000000,512.000000) scale(0.100000,-0.100000)"
fill="#000000" stroke="none">
<path d="M2452 5085 c-130 -29 -99 0 -1284 -1184 -915 -914 -1111 -1116 -1134
-1161 -39 -79 -45 -200 -13 -284 69 -185 286 -270 475 -187 33 15 95 69 210
183 l164 162 0 -1136 c0 -1109 0 -1137 20 -1199 26 -81 76 -149 143 -194 94
-62 123 -65 579 -65 l407 0 3 527 c3 510 4 529 23 563 41 70 40 70 515 70 475
0 474 0 515 -70 19 -34 20 -53 23 -563 l3 -527 407 0 c459 0 487 3 582 68 66
45 125 127 145 202 13 47 15 228 15 1189 l0 1135 164 -162 c173 -171 208 -196
309 -212 66 -10 156 4 216 34 66 34 134 110 160 182 32 84 26 205 -13 284 -23
45 -219 247 -1134 1161 -866 865 -1119 1113 -1164 1138 -60 34 -167 61 -233
60 -22 0 -68 -7 -103 -14z"/>
</g>
</svg>
