<?xml version="1.0" standalone="no"?>
<!DOCTYPE svg PUBLIC "-//W3C//DTD SVG 20010904//EN"
 "http://www.w3.org/TR/2001/REC-SVG-20010904/DTD/svg10.dtd">
<svg version="1.0" xmlns="http://www.w3.org/2000/svg"
 width="512.000000pt" height="512.000000pt" viewBox="0 0 512.000000 512.000000"
 preserveAspectRatio="xMidYMid meet">
<metadata>
Created by potrace 1.16, written by Peter Selinger 2001-2019
</metadata>
<g transform="translate(0.000000,512.000000) scale(0.100000,-0.100000)"
fill="#000000" stroke="none">
<path d="M2315 5114 c-16 -2 -66 -9 -110 -15 -1010 -134 -1871 -897 -2126
-1886 -63 -246 -73 -340 -73 -653 0 -248 2 -301 21 -410 99 -564 351 -1046
749 -1430 392 -379 845 -604 1399 -697 158 -26 612 -26 770 0 554 93 1007 318
1399 697 398 384 650 866 749 1430 19 109 21 162 21 410 0 248 -2 301 -21 410
-99 564 -351 1046 -749 1430 -391 377 -840 601 -1394 696 -91 15 -558 29 -635
18z m436 -474 c391 -39 738 -174 1060 -412 360 -267 645 -684 763 -1119 100
-368 100 -730 0 -1098 -118 -435 -403 -852 -763 -1119 -218 -161 -461 -281
-702 -346 -368 -100 -730 -100 -1098 0 -241 65 -484 185 -702 346 -360 267
-645 684 -763 1119 -84 309 -97 617 -40 924 82 445 314 859 654 1169 190 174
455 334 703 425 265 97 604 139 888 111z"/>
<path d="M2500 4031 c-135 -44 -203 -166 -165 -296 30 -103 117 -169 225 -169
207 0 313 245 171 397 -53 58 -164 90 -231 68z"/>
<path d="M2505 3101 c-70 -18 -125 -63 -161 -131 -18 -33 -19 -75 -19 -875 0
-800 1 -842 19 -875 48 -90 119 -134 216 -134 97 0 168 44 216 134 18 33 19
75 19 875 0 800 -1 842 -19 875 -25 48 -64 88 -107 110 -42 22 -121 32 -164
21z"/>
</g>
</svg>
