<?xml version="1.0" standalone="no"?>
<!DOCTYPE svg PUBLIC "-//W3C//DTD SVG 20010904//EN"
 "http://www.w3.org/TR/2001/REC-SVG-20010904/DTD/svg10.dtd">
<svg version="1.0" xmlns="http://www.w3.org/2000/svg"
 width="32.000000pt" height="32.000000pt" viewBox="0 0 32.000000 32.000000"
 preserveAspectRatio="xMidYMid meet">

<g transform="translate(0.000000,32.000000) scale(0.100000,-0.100000)"
fill="#c6c8c7" stroke="none">
<path d="M95 306 c-101 -44 -125 -178 -46 -257 65 -65 157 -65 222 0 124 124
-15 327 -176 257z m134 -24 c93 -50 93 -194 0 -244 -125 -67 -258 66 -191 191
22 41 74 71 122 71 19 0 51 -8 69 -18z"/>
<path d="M126 280 c-87 -27 -120 -147 -56 -205 19 -18 20 -17 20 8 0 31 24 47
70 47 46 0 70 -16 70 -47 0 -25 1 -26 20 -8 28 25 40 77 29 119 -10 35 -59 86
-84 86 -7 0 -19 2 -27 4 -7 2 -26 0 -42 -4z m62 -52 c34 -34 -6 -90 -48 -68
-35 19 -20 80 20 80 9 0 21 -5 28 -12z"/>
</g>
</svg>
