<?xml version="1.0" standalone="no"?>
<!DOCTYPE svg PUBLIC "-//W3C//DTD SVG 20010904//EN"
 "http://www.w3.org/TR/2001/REC-SVG-20010904/DTD/svg10.dtd">
<svg version="1.0" xmlns="http://www.w3.org/2000/svg"
 width="32.000000pt" height="32.000000pt" viewBox="0 0 32.000000 32.000000"
 preserveAspectRatio="xMidYMid meet">

<g transform="translate(0.000000,32.000000) scale(0.100000,-0.100000)"
fill="#c6c8c7" stroke="none">
<path d="M2315 5109 c-800 -83 -1501 -518 -1927 -1196 -604 -961 -490 -2237
274 -3068 425 -462 951 -737 1583 -827 119 -17 512 -16 635 1 562 77 1067 321
1454 699 432 424 681 920 768 1527 17 118 17 512 0 630 -71 496 -262 943 -557
1300 -418 506 -982 825 -1630 921 -123 18 -478 26 -600 13z m1268 -1537 c161
-161 217 -224 217 -242 0 -17 -38 -61 -135 -159 l-135 -136 -247 248 -248 247
131 130 c117 116 134 130 165 130 32 0 53 -18 252 -218z m-483 -477 l245 -245
-608 -608 -607 -607 -247 248 -248 247 605 605 c333 333 607 605 610 605 3 0
115 -110 250 -245z m-1239 -1729 l-79 -79 -238 -53 c-132 -29 -253 -54 -270
-54 -39 0 -81 32 -88 68 -10 43 100 521 127 552 12 14 46 51 77 83 l55 57 247
-247 248 -248 -79 -79z"/>
</g>
</svg>
