<?xml version="1.0" standalone="no"?>
<!DOCTYPE svg PUBLIC "-//W3C//DTD SVG 20010904//EN"
 "http://www.w3.org/TR/2001/REC-SVG-20010904/DTD/svg10.dtd">
<svg version="1.0" xmlns="http://www.w3.org/2000/svg"
 width="32.000000pt" height="32.000000pt" viewBox="0 0 32.000000 32.000000"
 preserveAspectRatio="xMidYMid meet">

<g transform="translate(0.000000,32.000000) scale(0.100000,-0.100000)"
fill="#c6c8c7" stroke="none">
<path d="M95 306 c-101 -44 -125 -178 -46 -257 65 -65 157 -65 222 0 124 124
-15 327 -176 257z m134 -90 c19 -23 -4 -28 -24 -6 -15 17 -16 20 -3 20 9 0 21
-6 27 -14z m-56 -78 c-28 -29 -40 -35 -50 -27 -20 17 -16 30 19 66 30 31 33
32 50 16 18 -16 17 -18 -19 -55z m-63 -33 c14 -17 12 -21 -10 -26 -16 -4 -20
1 -20 26 0 19 14 19 30 0z"/>
</g>
</svg>
