<?xml version="1.0" standalone="no"?>
<!DOCTYPE svg PUBLIC "-//W3C//DTD SVG 20010904//EN"
 "http://www.w3.org/TR/2001/REC-SVG-20010904/DTD/svg10.dtd">
<svg version="1.0" xmlns="http://www.w3.org/2000/svg"
 width="32.000000pt" height="32.000000pt" viewBox="0 0 32.000000 32.000000"
 preserveAspectRatio="xMidYMid meet">

<g transform="translate(0.000000,32.000000) scale(0.100000,-0.100000)"
fill="#c6c8c7" stroke="none">
<path d="M95 306 c-101 -44 -125 -178 -46 -257 65 -65 157 -65 222 0 124 124
-15 327 -176 257z m115 -56 c20 -20 24 -36 20 -75 -2 -23 -58 -115 -70 -115
-12 0 -68 92 -70 115 -6 58 21 95 70 95 17 0 39 -9 50 -20z"/>
<path d="M128 238 c-8 -7 -18 -21 -21 -30 -6 -17 39 -118 53 -118 14 0 59 101
53 118 -8 22 -33 42 -53 42 -9 0 -23 -6 -32 -12z m52 -48 c0 -13 -7 -20 -20
-20 -13 0 -20 7 -20 20 0 13 7 20 20 20 13 0 20 -7 20 -20z"/>
</g>
</svg>
