<?xml version="1.0" standalone="no"?>
<!DOCTYPE svg PUBLIC "-//W3C//DTD SVG 20010904//EN"
 "http://www.w3.org/TR/2001/REC-SVG-20010904/DTD/svg10.dtd">
<svg version="1.0" xmlns="http://www.w3.org/2000/svg"
 width="32.000000pt" height="32.000000pt" viewBox="0 0 32.000000 32.000000"
 preserveAspectRatio="xMidYMid meet">

<g transform="translate(0.000000,32.000000) scale(0.100000,-0.100000)"
fill="#c6c8c7" stroke="none">
<path d="M113 309 c-44 -13 -90 -62 -103 -110 -30 -112 77 -220 188 -190 47
13 99 66 113 114 21 76 -31 165 -109 187 -43 11 -46 11 -89 -1z m129 -79 c25
-31 24 -110 -1 -141 -16 -21 -28 -24 -81 -24 -76 0 -100 22 -100 92 0 80 29
105 114 99 37 -2 55 -9 68 -26z"/>
<path d="M98 229 c-27 -15 -26 -124 1 -139 25 -13 97 -13 122 0 28 16 28 124
0 140 -25 13 -101 13 -123 -1z m122 -19 c0 -5 -4 -10 -10 -10 -5 0 -7 -13 -4
-28 10 -50 -45 -82 -80 -46 -36 35 -4 90 46 80 15 -3 28 -1 28 4 0 6 5 10 10
10 6 0 10 -4 10 -10z"/>
<path d="M134 176 c-10 -26 4 -48 28 -44 17 2 23 10 23 28 0 18 -6 26 -23 28
-13 2 -25 -3 -28 -12z"/>
</g>
</svg>
