<?xml version="1.0" standalone="no"?>
<!DOCTYPE svg PUBLIC "-//W3C//DTD SVG 20010904//EN"
 "http://www.w3.org/TR/2001/REC-SVG-20010904/DTD/svg10.dtd">
<svg version="1.0" xmlns="http://www.w3.org/2000/svg"
 width="32.000000pt" height="32.000000pt" viewBox="0 0 32.000000 32.000000"
 preserveAspectRatio="xMidYMid meet">

<g transform="translate(0.000000,32.000000) scale(0.100000,-0.100000)"
fill="#c6c8c7" stroke="none">
<path d="M113 309 c-44 -13 -90 -62 -103 -110 -30 -112 77 -220 188 -190 47
13 99 66 113 114 21 76 -31 165 -109 187 -43 11 -46 11 -89 -1z m97 -59 c0
-11 -7 -20 -15 -20 -8 0 -15 -9 -15 -20 0 -11 7 -20 15 -20 8 0 15 -9 15 -20
0 -11 -7 -20 -14 -20 -11 0 -16 -14 -18 -47 -2 -36 -7 -49 -20 -51 -15 -3 -18
4 -18 47 0 39 -4 51 -15 51 -8 0 -15 9 -15 20 0 11 7 20 15 20 10 0 15 10 15
30 0 22 6 33 23 40 35 14 47 12 47 -10z"/>
</g>
</svg>
